<svg width="255" height="170" viewBox="0 0 255 170" fill="none" xmlns="http://www.w3.org/2000/svg"><path d="M119.103 3.322c5.117-4.43 12.754-4.43 17.87 0l14.816 12.983c2.291 1.91 5.041 3.131 7.943 3.284l19.703 1.298c6.797.459 12.143 5.804 12.678 12.678l1.298 19.703c.153 2.979 1.375 5.804 3.284 7.943l12.983 14.816c4.429 5.116 4.429 12.753 0 17.87l-12.983 14.816c-1.909 2.291-3.131 5.04-3.284 7.942l-1.298 19.704c-.458 6.797-5.804 12.143-12.678 12.677l-19.703 1.299c-2.979.152-5.804 1.374-7.943 3.284l-14.816 12.983c-5.116 4.429-12.753 4.429-17.87 0l-14.816-12.983c-2.291-1.91-5.04-3.132-7.942-3.284l-19.704-1.299c-6.797-.458-12.143-5.804-12.677-12.677l-1.299-19.704c-.152-2.978-1.374-5.804-3.284-7.942l-13.059-14.74c-4.43-5.116-4.43-12.753 0-17.87l12.983-14.816c1.91-2.291 3.131-5.04 3.284-7.942l1.298-19.704c.459-6.797 5.804-12.143 12.678-12.677l19.703-1.299c2.979-.152 5.804-1.374 7.943-3.284l14.892-13.059z" fill="#fff"/><path d="M119.103 3.322c5.117-4.43 12.754-4.43 17.87 0l14.816 12.983c2.291 1.91 5.041 3.131 7.943 3.284l19.703 1.298c6.797.459 12.143 5.804 12.678 12.678l1.298 19.703c.153 2.979 1.375 5.804 3.284 7.943l12.983 14.816c4.429 5.116 4.429 12.753 0 17.87l-12.983 14.816c-1.909 2.291-3.131 5.04-3.284 7.942l-1.298 19.704c-.458 6.797-5.804 12.143-12.678 12.677l-19.703 1.299c-2.979.152-5.804 1.374-7.943 3.284l-14.816 12.983c-5.116 4.429-12.753 4.429-17.87 0l-14.816-12.983c-2.291-1.91-5.04-3.132-7.942-3.284l-19.704-1.299c-6.797-.458-12.143-5.804-12.677-12.677l-1.299-19.704c-.152-2.978-1.374-5.804-3.284-7.942l-13.059-14.74c-4.43-5.116-4.43-12.753 0-17.87l12.983-14.816c1.91-2.291 3.131-5.04 3.284-7.942l1.298-19.704c.459-6.797 5.804-12.143 12.678-12.677l19.703-1.299c2.979-.152 5.804-1.374 7.943-3.284l14.892-13.059z" fill="#6991D6" fill-opacity=".14"/><path opacity=".12" d="M142.472 129.867V102.45l17.413 10.081c2.749 1.604 2.749 5.651 0 7.255l-17.413 10.081z" fill="#0B57D0"/><path d="M159.885 53.116l-37.575-20.01c-1.756-.916-3.742-1.374-5.88-1.374-3.36 0-6.415 1.375-8.783 3.437-2.138 1.909-3.284 4.658-3.513 7.637l-.152 14.128c0 19.475-.229 39.865-.229 39.865-.535 4.43-2.979 14.358-13.594 18.329l-.917 3.666 6.492-.535-1.146 3.742 6.492-.534-.917 3.742 6.568-.535-.84 3.819 6.644-.535-.84 3.819 6.491-.535-.84 3.666 6.568-.535-.84 3.666 6.568-.534s10.463-5.575 10.615-5.575c3.666-2.826 6.416-6.874 6.568-12.067V64.647c0-8.4 13.06-11.531 13.06-11.531z" fill="#fff"/><path d="M134.453 96.952c-.458 0-.84-.077-1.222-.382l-23.064-14.13c-1.145-.687-1.451-2.138-.763-3.284.687-1.145 2.138-1.45 3.284-.763l23.063 14.128c1.146.688 1.452 2.139.764 3.284a2.3 2.3 0 01-1.985 1.146h-.077zm1.222-16.649c-.458 0-.84-.076-1.222-.382l-23.064-14.128c-1.145-.687-1.451-2.138-.763-3.284.687-1.145 2.138-1.451 3.284-.764l23.063 14.129c1.146.687 1.451 2.138.764 3.284a2.301 2.301 0 01-1.986 1.145h-.076zm1.222-15.808c-.458 0-.84-.077-1.222-.382l-23.063-14.129c-1.146-.687-1.451-2.138-.764-3.284.687-1.145 2.138-1.45 3.284-.763l23.064 14.128c1.145.688 1.451 2.139.763 3.284a2.301 2.301 0 01-1.985 1.146h-.077z" fill="#D3E3FD"/><path d="M166.376 99.32V62.355a9.958 9.958 0 00-10.005-9.852 9.827 9.827 0 00-9.851 9.852l.229 27.035 3.054-2.062 3.284 7.866 6.645-2.673 6.644 6.797z" fill="#A8C7FA"/><path d="M132.391 123.223c-.458 0-.84-.076-1.222-.382l-12.601-7.713c-1.145-.687-1.451-2.138-.763-3.284.687-1.146 2.138-1.451 3.284-.764l12.601 7.714c1.145.687 1.451 2.138.763 3.284a2.302 2.302 0 01-1.985 1.145h-.077z" fill="#D3E3FD"/></svg>